<svg xmlns="http://www.w3.org/2000/svg" width="32" height="32" viewBox="0 0 32 32">
  <rect width="32" height="32" rx="6" fill="#f7f4ee" />
  <path d="M16 27 C12 20 12 9 16 5 C20 9 20 20 16 27 Z" fill="#1d1b18" transform="rotate(-56 16 27)" opacity="0.7" />
  <path d="M16 27 C12 20 12 9 16 5 C20 9 20 20 16 27 Z" fill="#1d1b18" transform="rotate(-28 16 27)" opacity="0.7" />
  <path d="M16 27 C12 20 12 9 16 5 C20 9 20 20 16 27 Z" fill="#1d1b18" />
  <path d="M16 27 C12 20 12 9 16 5 C20 9 20 20 16 27 Z" fill="#1d1b18" transform="rotate(28 16 27)" opacity="0.7" />
  <path d="M16 27 C12 20 12 9 16 5 C20 9 20 20 16 27 Z" fill="#1d1b18" transform="rotate(56 16 27)" opacity="0.7" />
</svg>
